<mxfile host="Electron" modified="2023-09-15T20:22:13.197Z" agent="Mozilla/5.0 (Windows NT 10.0; Win64; x64) AppleWebKit/537.36 (KHTML, like Gecko) draw.io/21.6.5 Chrome/114.0.5735.243 Electron/25.3.1 Safari/537.36" etag="HCC7zzRGc6TJitnDz0G_" version="21.6.5" type="device">
  <diagram id="szs79xgOVXDPXgL9OrpX" name="Página-1">
    <mxGraphModel dx="1658" dy="820" grid="1" gridSize="10" guides="1" tooltips="1" connect="1" arrows="1" fold="1" page="1" pageScale="1" pageWidth="1150" pageHeight="700" math="0" shadow="0">
      <root>
        <mxCell id="0" />
        <mxCell id="1" parent="0" />
        <mxCell id="DPbp3sRypC6EYG-zwKEf-8" style="edgeStyle=orthogonalEdgeStyle;rounded=0;orthogonalLoop=1;jettySize=auto;html=1;exitX=1;exitY=0.3333333333333333;exitDx=0;exitDy=0;exitPerimeter=0;entryX=0;entryY=0.5;entryDx=0;entryDy=0;" parent="1" source="JT4kMcvBIIkPuXkFA3qM-11" target="DPbp3sRypC6EYG-zwKEf-5" edge="1">
          <mxGeometry relative="1" as="geometry">
            <mxPoint x="125" y="240" as="sourcePoint" />
          </mxGeometry>
        </mxCell>
        <mxCell id="DPbp3sRypC6EYG-zwKEf-9" style="edgeStyle=orthogonalEdgeStyle;rounded=0;orthogonalLoop=1;jettySize=auto;html=1;exitX=1;exitY=0.3333333333333333;exitDx=0;exitDy=0;exitPerimeter=0;entryX=0;entryY=0.5;entryDx=0;entryDy=0;" parent="1" source="JT4kMcvBIIkPuXkFA3qM-11" target="DPbp3sRypC6EYG-zwKEf-6" edge="1">
          <mxGeometry relative="1" as="geometry">
            <mxPoint x="125" y="240" as="sourcePoint" />
          </mxGeometry>
        </mxCell>
        <mxCell id="DPbp3sRypC6EYG-zwKEf-10" style="edgeStyle=orthogonalEdgeStyle;rounded=0;orthogonalLoop=1;jettySize=auto;html=1;entryX=0;entryY=0.5;entryDx=0;entryDy=0;" parent="1" target="DPbp3sRypC6EYG-zwKEf-7" edge="1">
          <mxGeometry relative="1" as="geometry">
            <mxPoint x="140" y="590" as="sourcePoint" />
          </mxGeometry>
        </mxCell>
        <mxCell id="DPbp3sRypC6EYG-zwKEf-11" style="edgeStyle=orthogonalEdgeStyle;rounded=0;orthogonalLoop=1;jettySize=auto;html=1;exitX=1;exitY=0.3333333333333333;exitDx=0;exitDy=0;exitPerimeter=0;entryX=0;entryY=0.5;entryDx=0;entryDy=0;" parent="1" source="JT4kMcvBIIkPuXkFA3qM-11" target="NUaUHLJXbepJ66ujS02r-18" edge="1">
          <mxGeometry relative="1" as="geometry">
            <mxPoint x="125" y="240" as="sourcePoint" />
          </mxGeometry>
        </mxCell>
        <mxCell id="DPbp3sRypC6EYG-zwKEf-14" style="edgeStyle=orthogonalEdgeStyle;rounded=0;orthogonalLoop=1;jettySize=auto;html=1;exitX=1;exitY=0.3333333333333333;exitDx=0;exitDy=0;exitPerimeter=0;entryX=0;entryY=0.5;entryDx=0;entryDy=0;" parent="1" source="JT4kMcvBIIkPuXkFA3qM-11" target="DPbp3sRypC6EYG-zwKEf-13" edge="1">
          <mxGeometry relative="1" as="geometry">
            <mxPoint x="125" y="240" as="sourcePoint" />
          </mxGeometry>
        </mxCell>
        <mxCell id="NUaUHLJXbepJ66ujS02r-15" value="CU-1: Consultar información pública" style="shape=umlFrame;whiteSpace=wrap;html=1;width=270;height=20;fontStyle=1" parent="1" vertex="1">
          <mxGeometry x="280" y="90" width="320" height="520" as="geometry" />
        </mxCell>
        <mxCell id="NUaUHLJXbepJ66ujS02r-18" value="&lt;b&gt;CU-1.1: &lt;br&gt;&lt;/b&gt;Consultar información actual equipos de gobierno" style="ellipse;whiteSpace=wrap;html=1;verticalAlign=top;" parent="1" vertex="1">
          <mxGeometry x="360" y="130" width="140" height="70" as="geometry" />
        </mxCell>
        <mxCell id="DPbp3sRypC6EYG-zwKEf-5" value="&lt;b&gt;CU-1.2: &lt;br&gt;&lt;/b&gt;Consultar información actual junta" style="ellipse;whiteSpace=wrap;html=1;verticalAlign=top;" parent="1" vertex="1">
          <mxGeometry x="360" y="230" width="140" height="70" as="geometry" />
        </mxCell>
        <mxCell id="DPbp3sRypC6EYG-zwKEf-6" value="&lt;b&gt;CU-1.3: &lt;br&gt;&lt;/b&gt;Consultar información actual comisiones" style="ellipse;whiteSpace=wrap;html=1;verticalAlign=top;" parent="1" vertex="1">
          <mxGeometry x="360" y="330" width="140" height="70" as="geometry" />
        </mxCell>
        <mxCell id="DPbp3sRypC6EYG-zwKEf-7" value="&lt;b&gt;CU-1.4: &lt;br&gt;&lt;/b&gt;Consultar información actual convocatorias" style="ellipse;whiteSpace=wrap;html=1;verticalAlign=top;" parent="1" vertex="1">
          <mxGeometry x="360" y="430" width="140" height="70" as="geometry" />
        </mxCell>
        <mxCell id="DPbp3sRypC6EYG-zwKEf-13" value="&lt;b&gt;CU-1.5: &lt;br&gt;&lt;/b&gt;Consultar ayuda usuario público" style="ellipse;whiteSpace=wrap;html=1;verticalAlign=top;" parent="1" vertex="1">
          <mxGeometry x="360" y="520" width="140" height="70" as="geometry" />
        </mxCell>
        <mxCell id="JT4kMcvBIIkPuXkFA3qM-1" value="" style="edgeStyle=orthogonalEdgeStyle;rounded=0;orthogonalLoop=1;jettySize=auto;html=1;" edge="1" parent="1" source="JT4kMcvBIIkPuXkFA3qM-5" target="JT4kMcvBIIkPuXkFA3qM-7">
          <mxGeometry relative="1" as="geometry" />
        </mxCell>
        <mxCell id="JT4kMcvBIIkPuXkFA3qM-2" value="" style="edgeStyle=orthogonalEdgeStyle;rounded=0;orthogonalLoop=1;jettySize=auto;html=1;" edge="1" parent="1" source="JT4kMcvBIIkPuXkFA3qM-4" target="JT4kMcvBIIkPuXkFA3qM-5">
          <mxGeometry relative="1" as="geometry" />
        </mxCell>
        <mxCell id="JT4kMcvBIIkPuXkFA3qM-3" value="" style="edgeStyle=orthogonalEdgeStyle;rounded=0;orthogonalLoop=1;jettySize=auto;html=1;" edge="1" parent="1" source="JT4kMcvBIIkPuXkFA3qM-8" target="JT4kMcvBIIkPuXkFA3qM-4">
          <mxGeometry relative="1" as="geometry" />
        </mxCell>
        <mxCell id="JT4kMcvBIIkPuXkFA3qM-4" value="&lt;span style=&quot;background-color: rgb(255 , 255 , 255)&quot;&gt;Responsable Centro&lt;/span&gt;" style="shape=umlActor;verticalLabelPosition=bottom;verticalAlign=top;html=1;outlineConnect=0;" vertex="1" parent="1">
          <mxGeometry x="100" y="160" width="30" height="60" as="geometry" />
        </mxCell>
        <mxCell id="JT4kMcvBIIkPuXkFA3qM-5" value="&lt;span style=&quot;background-color: rgb(255 , 255 , 255)&quot;&gt;Responsable Junta&lt;/span&gt;" style="shape=umlActor;verticalLabelPosition=bottom;verticalAlign=top;html=1;outlineConnect=0;" vertex="1" parent="1">
          <mxGeometry x="100" y="260" width="30" height="60" as="geometry" />
        </mxCell>
        <mxCell id="JT4kMcvBIIkPuXkFA3qM-6" value="" style="edgeStyle=orthogonalEdgeStyle;rounded=0;orthogonalLoop=1;jettySize=auto;html=1;" edge="1" parent="1" source="JT4kMcvBIIkPuXkFA3qM-7" target="JT4kMcvBIIkPuXkFA3qM-10">
          <mxGeometry relative="1" as="geometry" />
        </mxCell>
        <mxCell id="JT4kMcvBIIkPuXkFA3qM-7" value="&lt;span style=&quot;background-color: rgb(255 , 255 , 255)&quot;&gt;Responsable Comisión&lt;/span&gt;" style="shape=umlActor;verticalLabelPosition=bottom;verticalAlign=top;html=1;outlineConnect=0;" vertex="1" parent="1">
          <mxGeometry x="100" y="360" width="30" height="60" as="geometry" />
        </mxCell>
        <mxCell id="JT4kMcvBIIkPuXkFA3qM-8" value="&lt;span style=&quot;background-color: rgb(255 , 255 , 255)&quot;&gt;Administrador&lt;/span&gt;" style="shape=umlActor;verticalLabelPosition=bottom;verticalAlign=top;html=1;outlineConnect=0;" vertex="1" parent="1">
          <mxGeometry x="100" y="60" width="30" height="60" as="geometry" />
        </mxCell>
        <mxCell id="JT4kMcvBIIkPuXkFA3qM-9" value="" style="edgeStyle=orthogonalEdgeStyle;rounded=0;orthogonalLoop=1;jettySize=auto;html=1;" edge="1" parent="1" source="JT4kMcvBIIkPuXkFA3qM-10" target="JT4kMcvBIIkPuXkFA3qM-11">
          <mxGeometry relative="1" as="geometry" />
        </mxCell>
        <mxCell id="JT4kMcvBIIkPuXkFA3qM-10" value="&lt;span style=&quot;background-color: rgb(255 , 255 , 255)&quot;&gt;Usuario registrado&lt;/span&gt;" style="shape=umlActor;verticalLabelPosition=bottom;verticalAlign=top;html=1;outlineConnect=0;" vertex="1" parent="1">
          <mxGeometry x="100" y="470" width="30" height="60" as="geometry" />
        </mxCell>
        <mxCell id="JT4kMcvBIIkPuXkFA3qM-11" value="&lt;span style=&quot;background-color: rgb(255 , 255 , 255)&quot;&gt;Usuario público&lt;/span&gt;" style="shape=umlActor;verticalLabelPosition=bottom;verticalAlign=top;html=1;outlineConnect=0;" vertex="1" parent="1">
          <mxGeometry x="100" y="570" width="30" height="60" as="geometry" />
        </mxCell>
      </root>
    </mxGraphModel>
  </diagram>
</mxfile>
